<?xml version="1.0" encoding="utf-8"?>
<!-- Generator: Adobe Illustrator 17.0.0, SVG Export Plug-In . SVG Version: 6.00 Build 0)  -->
<!DOCTYPE svg PUBLIC "-//W3C//DTD SVG 1.1//EN" "http://www.w3.org/Graphics/SVG/1.1/DTD/svg11.dtd">
<svg version="1.1" id="Calque_1" xmlns="http://www.w3.org/2000/svg" xmlns:xlink="http://www.w3.org/1999/xlink" x="0px" y="0px"
	 width="253px" height="254px" viewBox="0 0 253 254" enable-background="new 0 0 253 254" xml:space="preserve">
<radialGradient id="SVGID_1_" cx="126.5" cy="127" r="126.7502" gradientUnits="userSpaceOnUse">
	<stop  offset="0" style="stop-color:#FEFFD5"/>
	<stop  offset="0.1086" style="stop-color:#FEE9B0"/>
	<stop  offset="0.2569" style="stop-color:#FECF84"/>
	<stop  offset="0.4069" style="stop-color:#FFB95F"/>
	<stop  offset="0.5565" style="stop-color:#FFA942"/>
	<stop  offset="0.7054" style="stop-color:#FF9D2E"/>
	<stop  offset="0.8535" style="stop-color:#FF9522"/>
	<stop  offset="1" style="stop-color:#FF931E"/>
</radialGradient>
<path fill="url(#SVGID_1_)" d="M0,245c0,4.971,4.029,9,9,9h235c4.971,0,9-4.029,9-9V9c0-4.971-4.029-9-9-9H9C4.029,0,0,4.029,0,9
	V245z"/>
<g>
	<g>
		<path d="M74.319,147.707c-0.231,0.66-0.628,1.984-1.196,3.971c-1.252,4.33-2.208,6.912-2.865,7.746
			c-0.453,0.575-0.984,0.87-1.594,0.885c-0.608,0.015-1.162-0.172-1.659-0.565c-1.392-1.098-1.987-2.513-1.783-4.246
			c0.205-1.732,1.268-4.829,3.191-9.293c1.922-4.463,3.183-7.077,3.782-7.835c0.905-1.15,1.926-1.276,3.06-0.382
			c0.816,0.643,1.645,1.943,2.49,3.901c1.971,4.619,5.872,11.405,11.701,20.359c5.83,8.953,10.933,15.666,15.311,20.139
			c0.683,0.689,1.007,1.464,0.975,2.323c-0.034,0.86-0.335,1.652-0.904,2.375c-1.286,1.631-2.724,1.818-4.316,0.563
			c-2.606-2.055-6.928-7.641-12.967-16.759C81.505,161.772,77.096,154.044,74.319,147.707z"/>
		<path d="M110.975,157.42c1.464-0.07,2.586-0.098,3.365-0.082c1.981,0.042,5.285,0.332,9.911,0.872
			c4.627,0.541,8.151,1.044,10.571,1.513c2.421,0.469,3.923,0.906,4.505,1.31c0.581,0.406,1.042,0.947,1.382,1.625
			c0.34,0.679,0.502,1.398,0.486,2.158c-0.014,0.633-0.469,1.276-1.368,1.929c-0.898,0.653-1.737,0.971-2.516,0.955
			c-0.92-0.019-2.318-0.29-4.195-0.809c-3.168-0.903-6.97-1.615-11.408-2.138s-8.568-0.825-12.389-0.905
			c-1.699-0.035-3.463,0.206-5.29,0.726c-1.023,0.359-2.017,0.528-2.984,0.508c-0.591-0.012-1.1-0.213-1.527-0.601
			c-0.429-0.39-0.637-0.913-0.623-1.572c0.049-2.329,1.788-5.125,5.22-8.386c3.431-3.26,8.236-6.511,14.417-9.753
			c7.564-3.973,12.578-7.327,15.043-10.063c2.464-2.736,3.723-5.446,3.78-8.131c0.051-2.456-0.795-4.603-2.539-6.438
			c-1.744-1.835-3.948-2.781-6.613-2.837c-2.454-0.051-4.728,0.345-6.822,1.188c-2.095,0.844-4.145,2.423-6.153,4.737
			c-0.822,0.946-1.575,1.411-2.259,1.398c-0.849-0.018-1.609-0.357-2.28-1.017c-0.672-0.661-0.997-1.408-0.98-2.245
			c0.054-2.583,2.011-5.019,5.87-7.307c3.859-2.289,8.359-3.38,13.503-3.273c4.411,0.093,8.067,1.601,10.968,4.524
			c2.901,2.924,4.305,6.653,4.21,11.186c-0.094,4.509-1.79,8.623-5.09,12.342c-3.299,3.719-9.407,7.755-18.323,12.104
			C117.029,152.809,113.739,154.97,110.975,157.42z"/>
		<path d="M179.208,164.448c1.769,1.259,3.061,3.004,3.877,5.234c0.816,2.231,1.028,4.328,0.634,6.29
			c-1.046,5.216-3.776,9.082-8.191,11.594c-4.415,2.512-9.618,3.168-15.609,1.966c-4.674-0.938-8.731-3.055-12.172-6.356
			c-3.442-3.299-4.886-6.328-4.333-9.086c0.194-0.969,0.68-1.775,1.46-2.42c0.779-0.644,1.585-0.883,2.418-0.716
			c1.55,0.311,2.466,1.024,2.748,2.14c1.612,5.517,5.426,8.879,11.442,10.085c4.21,0.845,7.669,0.485,10.377-1.077
			c2.708-1.563,4.371-3.885,4.989-6.965c0.318-1.589,0.135-3.047-0.549-4.374c-0.685-1.326-1.622-2.327-2.809-3.005
			c-1.187-0.677-3.481-1.358-6.882-2.039c-0.903-0.181-1.56-0.655-1.972-1.423c-0.411-0.767-0.53-1.585-0.355-2.455
			c0.159-0.795,0.644-1.447,1.457-1.956c0.812-0.509,1.819-0.643,3.023-0.402c0.925,0.185,1.8,0.387,2.622,0.604l2.419,0.717
			c0.369,0.074,1.67-0.136,3.899-0.632c2.229-0.497,4.07-1.367,5.523-2.613c1.453-1.246,2.374-2.838,2.763-4.775
			c0.449-2.236-0.074-4.284-1.565-6.147c-1.492-1.862-3.718-3.091-6.679-3.685c-5.09-1.021-9.346,0.103-12.768,3.37
			c-0.931,0.924-1.965,1.272-3.097,1.045c-0.88-0.176-1.552-0.607-2.015-1.296c-0.464-0.687-0.601-1.503-0.412-2.447
			c0.443-2.21,2.77-4.153,6.98-5.828c4.211-1.675,8.676-2.038,13.395-1.093c4.488,0.9,7.98,2.957,10.476,6.17
			c2.496,3.214,3.356,6.758,2.579,10.633c-0.593,2.957-2.082,5.402-4.468,7.341C186.026,162.786,182.959,163.985,179.208,164.448z"
			/>
	</g>
	<g>
		<g>
			<g>
				<path d="M90.428,127.735c0.994,3.972-0.922,7.823-4.12,8.644c-3.201,0.818-6.681-1.646-7.872-5.556
					c-8.005-26.682-18.831-52.981-32.428-78.448c-2.007-3.725-0.241-7.913,4.075-9.216c4.311-1.305,9.446,0.842,11.263,4.674
					C73.849,73.911,83.556,100.694,90.428,127.735z"/>
			</g>
			<g>
				<path d="M90.428,127.735c0.994,3.972-0.922,7.823-4.12,8.644c-3.201,0.818-6.681-1.646-7.872-5.556
					c-8.005-26.682-18.831-52.981-32.428-78.448c-2.007-3.725-0.241-7.913,4.075-9.216c4.311-1.305,9.446,0.842,11.263,4.674
					C73.849,73.911,83.556,100.694,90.428,127.735z"/>
			</g>
			<g>
				<path d="M90.428,127.735c0.994,3.972-0.922,7.823-4.12,8.644c-3.201,0.818-6.681-1.646-7.872-5.556
					c-8.005-26.682-18.831-52.981-32.428-78.448c-2.007-3.725-0.241-7.913,4.075-9.216c4.311-1.305,9.446,0.842,11.263,4.674
					C73.849,73.911,83.556,100.694,90.428,127.735z"/>
			</g>
		</g>
		<g>
			<g>
				<path d="M172.651,122.29c-0.941,3.988,1.049,7.804,4.255,8.585c3.211,0.777,6.665-1.713,7.843-5.629
					c7.888-26.731,19.167-53.018,33.758-78.218c2.155-3.683,0.346-7.916-4.2-9.293c-4.542-1.38-9.982,0.717-11.91,4.537
					C189.111,68.253,179.178,95.14,172.651,122.29z"/>
			</g>
			<g>
				<path d="M172.651,122.29c-0.941,3.988,1.049,7.804,4.255,8.585c3.211,0.777,6.665-1.713,7.843-5.629
					c7.888-26.731,19.167-53.018,33.758-78.218c2.155-3.683,0.346-7.916-4.2-9.293c-4.542-1.38-9.982,0.717-11.91,4.537
					C189.111,68.253,179.178,95.14,172.651,122.29z"/>
			</g>
			<g>
				<path d="M172.651,122.29c-0.941,3.988,1.049,7.804,4.255,8.585c3.211,0.777,6.665-1.713,7.843-5.629
					c7.888-26.731,19.167-53.018,33.758-78.218c2.155-3.683,0.346-7.916-4.2-9.293c-4.542-1.38-9.982,0.717-11.91,4.537
					C189.111,68.253,179.178,95.14,172.651,122.29z"/>
			</g>
		</g>
		<g>
			<path d="M85.534,99.937c29.605-1.48,59.285-1.489,88.891-0.029l2.742-8.439c-31.428-1.946-62.947-1.938-94.374,0.033
				L85.534,99.937z"/>
			<path d="M225.205,95.977c-8.731-1.101-17.478-2.034-26.233-2.831l-2.634,8.106c3.579,0.265,7.157,0.546,10.733,0.853
				c8.979,0.845,14.035,8.623,11.25,17.347c-5.74,18.125-11.486,37-17.237,56.414c-2.79,9.377-12.428,17.793-21.43,18.316
				c-32.882,1.815-65.87,1.815-98.752,0c-9.002-0.523-18.64-8.939-21.43-18.316c-5.751-19.414-11.497-38.289-17.237-56.414
				c-2.784-8.724,2.271-16.502,11.25-17.347c3.378-0.291,6.759-0.56,10.14-0.812l-2.631-8.096
				c-8.559,0.785-17.109,1.703-25.644,2.78c-8.961,1.216-13.98,8.853-11.174,17.053c7.469,22.04,14.95,45.606,22.439,70.237
				c2.815,9.208,12.465,17.745,21.458,18.518c41.398,3.406,83.007,3.406,124.405,0c8.993-0.773,18.643-9.31,21.458-18.518
				c7.49-24.631,14.971-48.197,22.439-70.237C239.184,104.83,234.166,97.193,225.205,95.977z"/>
		</g>
		<path d="M74.319,147.707c-0.231,0.66-0.628,1.984-1.196,3.971c-1.252,4.33-2.208,6.912-2.865,7.746
			c-0.453,0.575-0.984,0.87-1.594,0.885c-0.608,0.015-1.162-0.172-1.659-0.565c-1.392-1.098-1.987-2.513-1.783-4.246
			c0.205-1.732,1.268-4.829,3.191-9.293c1.922-4.463,3.183-7.077,3.782-7.835c0.905-1.15,1.926-1.276,3.06-0.382
			c0.816,0.643,1.645,1.943,2.49,3.901c1.971,4.619,5.872,11.405,11.701,20.359c5.83,8.953,10.933,15.666,15.311,20.139
			c0.683,0.689,1.007,1.464,0.975,2.323c-0.034,0.86-0.335,1.652-0.904,2.375c-1.286,1.631-2.724,1.818-4.316,0.563
			c-2.606-2.055-6.928-7.641-12.967-16.759C81.505,161.772,77.096,154.044,74.319,147.707z"/>
		<path d="M110.975,157.42c1.464-0.07,2.586-0.098,3.365-0.082c1.981,0.042,5.285,0.332,9.911,0.872
			c4.627,0.541,8.151,1.044,10.571,1.513c2.421,0.469,3.923,0.906,4.505,1.31c0.581,0.406,1.042,0.947,1.382,1.625
			c0.34,0.679,0.502,1.398,0.486,2.158c-0.014,0.633-0.469,1.276-1.368,1.929c-0.898,0.653-1.737,0.971-2.516,0.955
			c-0.92-0.019-2.318-0.29-4.195-0.809c-3.168-0.903-6.97-1.615-11.408-2.138s-8.568-0.825-12.389-0.905
			c-1.699-0.035-3.463,0.206-5.29,0.726c-1.023,0.359-2.017,0.528-2.984,0.508c-0.591-0.012-1.1-0.213-1.527-0.601
			c-0.429-0.39-0.637-0.913-0.623-1.572c0.049-2.329,1.788-5.125,5.22-8.386c3.431-3.26,8.236-6.511,14.417-9.753
			c7.564-3.973,12.578-7.327,15.043-10.063c2.464-2.736,3.723-5.446,3.78-8.131c0.051-2.456-0.795-4.603-2.539-6.438
			c-1.744-1.835-3.948-2.781-6.613-2.837c-2.454-0.051-4.728,0.345-6.822,1.188c-2.095,0.844-4.145,2.423-6.153,4.737
			c-0.822,0.946-1.575,1.411-2.259,1.398c-0.849-0.018-1.609-0.357-2.28-1.017c-0.672-0.661-0.997-1.408-0.98-2.245
			c0.054-2.583,2.011-5.019,5.87-7.307c3.859-2.289,8.359-3.38,13.503-3.273c4.411,0.093,8.067,1.601,10.968,4.524
			c2.901,2.924,4.305,6.653,4.21,11.186c-0.094,4.509-1.79,8.623-5.09,12.342c-3.299,3.719-9.407,7.755-18.323,12.104
			C117.029,152.809,113.739,154.97,110.975,157.42z"/>
		<path d="M179.208,164.448c1.769,1.259,3.061,3.004,3.877,5.234c0.816,2.231,1.028,4.328,0.634,6.29
			c-1.046,5.216-3.776,9.082-8.191,11.594c-4.415,2.512-9.618,3.168-15.609,1.966c-4.674-0.938-8.731-3.055-12.172-6.356
			c-3.442-3.299-4.886-6.328-4.333-9.086c0.194-0.969,0.68-1.775,1.46-2.42c0.779-0.644,1.585-0.883,2.418-0.716
			c1.55,0.311,2.466,1.024,2.748,2.14c1.612,5.517,5.426,8.879,11.442,10.085c4.21,0.845,7.669,0.485,10.377-1.077
			c2.708-1.563,4.371-3.885,4.989-6.965c0.318-1.589,0.135-3.047-0.549-4.374c-0.685-1.326-1.622-2.327-2.809-3.005
			c-1.187-0.677-3.481-1.358-6.882-2.039c-0.903-0.181-1.56-0.655-1.972-1.423c-0.411-0.767-0.53-1.585-0.355-2.455
			c0.159-0.795,0.644-1.447,1.457-1.956c0.812-0.509,1.819-0.643,3.023-0.402c0.925,0.185,1.8,0.387,2.622,0.604l2.419,0.717
			c0.369,0.074,1.67-0.136,3.899-0.632c2.229-0.497,4.07-1.367,5.523-2.613c1.453-1.246,2.374-2.838,2.763-4.775
			c0.449-2.236-0.074-4.284-1.565-6.147c-1.492-1.862-3.718-3.091-6.679-3.685c-5.09-1.021-9.346,0.103-12.768,3.37
			c-0.931,0.924-1.965,1.272-3.097,1.045c-0.88-0.176-1.552-0.607-2.015-1.296c-0.464-0.687-0.601-1.503-0.412-2.447
			c0.443-2.21,2.77-4.153,6.98-5.828c4.211-1.675,8.676-2.038,13.395-1.093c4.488,0.9,7.98,2.957,10.476,6.17
			c2.496,3.214,3.356,6.758,2.579,10.633c-0.593,2.957-2.082,5.402-4.468,7.341C186.026,162.786,182.959,163.985,179.208,164.448z"
			/>
	</g>
</g>
</svg>
